<svg fill="none" height="112" viewBox="0 0 398 112" width="398" xmlns="http://www.w3.org/2000/svg"><path d="m54.4343 110.298-50.61731-26.6905c-.83212-.4379-1.56961-1.0357-2.17016-1.7593-.60055-.7235-1.052351-1.5584-1.329493-2.457-.2771419-.8985-.3741695-1.8429-.285514-2.779.088656-.9361.361243-1.8455.802137-2.676l36.98954-70.11695c.8909-1.67829 2.4099-2.935753 4.225-3.497641s3.7788-.3825203 5.4621.49891l32.1696 16.956181 11.3198 38.7323-26.8787 50.79c-.8909 1.678-2.4098 2.936-4.2249 3.498s-3.7788.382-5.4621-.499z" fill="#029491"/><path d="m79.6803 17.7761-10.4249 19.7194c-.8212 1.5646-.9898 3.3906-.4692 5.0791.5207 1.6885 1.6884 3.1024 3.2481 3.9328l18.9658 10.001z" fill="#fff" opacity=".3"/><path d="m68.5477 39.3643c-.7778 1.4998-1.0196 3.2204-.6855 4.8766.334 1.6561 1.224 3.1484 2.5224 4.2295l.5495.4553c2.2451 1.7584 17.0033 13.2666 17.2702 12.8898s2.7946-5.3067 2.7946-5.3067l-18.9658-10.001s-4.71-2.669-3.4854-7.1435z" fill="#000" opacity=".2"/><g fill="#fafafa"><path d="m65.3769 34.4503c-.1413.2512-5.4794-2.3079-11.9478-5.7305-6.4685-3.4227-11.6025-6.3743-11.4298-6.6412.1728-.2669 5.4951 2.3079 11.9636 5.7305 6.4684 3.4227 11.5867 6.39 11.414 6.6412z"/><path d="m74.6097 53.6515c-.1256.2512-8.8706-4.0977-19.5153-9.7184-10.6447-5.6206-19.1542-10.4406-19.0286-10.6918s8.8706 4.0978 19.5153 9.7184c10.6447 5.6207 19.1699 10.3778 19.0286 10.6918z"/><path d="m73.1646 64.7361c-.1256.2512-9.6399-4.506-21.2423-10.6447-11.6024-6.1388-20.9126-11.2885-20.7713-11.5397s9.6556 4.506 21.258 10.6291c11.6024 6.123 20.8969 11.3041 20.7556 11.5553z"/><path d="m68.5348 73.5122c-.1413.2512-9.6556-4.506-21.2581-10.629-11.6024-6.1231-20.8969-11.3041-20.7556-11.5553s9.6399 4.5059 21.2423 10.629c11.6025 6.123 20.9284 11.3041 20.7714 11.5553z"/><path d="m63.886 82.3042c-.1256.2512-9.6399-4.506-21.2423-10.6448-11.6024-6.1387-20.8969-11.2884-20.7713-11.5396s9.6556 4.5217 21.258 10.629c11.6024 6.1074 20.8498 11.3042 20.7556 11.5554z"/><path d="m59.2711 91.0803c-.1413.2512-9.6556-4.5059-21.2423-10.629-11.5868-6.1231-20.9127-11.3041-20.7714-11.5553s9.6399 4.5059 21.2424 10.629c11.6024 6.1231 20.8969 11.3041 20.7713 11.5553z"/></g><path d="m260.84 78.2402c-1.174-.1683-2.233-.7959-2.945-1.7448s-1.017-2.1415-.85-3.3158l5.534-38.505c.174-.9681.724-1.8277 1.531-2.3906.806-.563 1.803-.7834 2.772-.6131l3.614.525c.707.1091 1.43.0205 2.089-.256.659-.2764 1.229-.73 1.647-1.3103l1.007-1.4717c.417-.5804.987-1.0339 1.646-1.3104s1.382-.3651 2.089-.256l17.213 2.4701c.647.0861 1.262.3339 1.789.7204.526.3866.947.8995 1.223 1.4914l.654 1.4631c.275.5908.695 1.1029 1.219 1.4894.525.3865 1.139.6349 1.785.7224l21.903 3.15c.976.1082 1.87.5994 2.485 1.3658s.9 1.7455.794 2.7222l-5.663 39.3744c-.083.581-.28 1.14-.58 1.6448-.299.5049-.695.9458-1.165 1.2975s-1.005.6073-1.574.7522-1.161.1763-1.742.0923z" fill="#455a64"/><path d="m260.84 78.2402c-1.174-.1683-2.233-.7959-2.945-1.7448s-1.017-2.1415-.85-3.3158l5.534-38.505c.174-.9681.724-1.8277 1.531-2.3906.806-.563 1.803-.7834 2.772-.6131l3.614.525c.707.1091 1.43.0205 2.089-.256.659-.2764 1.229-.73 1.647-1.3103l1.007-1.4717c.417-.5804.987-1.0339 1.646-1.3104s1.382-.3651 2.089-.256l17.213 2.4701c.647.0861 1.262.3339 1.789.7204.526.3866.947.8995 1.223 1.4914l.654 1.4631c.275.5908.695 1.1029 1.219 1.4894.525.3865 1.139.6349 1.785.7224l21.903 3.15c.976.1082 1.87.5994 2.485 1.3658s.9 1.7455.794 2.7222l-5.663 39.3744c-.083.581-.28 1.14-.58 1.6448-.299.5049-.695.9458-1.165 1.2975s-1.005.6073-1.574.7522-1.161.1763-1.742.0923z" fill="#000" opacity=".3"/><path d="m300.662 35.6472-13.926-2.0397-.912-2.5045c-.313-.8178-.842-1.5358-1.53-2.0782-.687-.5423-1.509-.8888-2.377-1.0029l-13.616-1.9536c-1.116-.1987-2.266.0515-3.199.6962-.933.6446-1.574 1.6316-1.784 2.7463l-.223 1.5922-6.025 41.8014c-.138 1.2839.237 2.5705 1.043 3.5795s1.978 1.6588 3.26 1.808l55.348 8.0212c1.273.223 2.583-.0675 3.643-.8078 1.059-.7403 1.783-1.8702 2.011-3.1425l5.681-39.4862c.062-.419.04-.846-.063-1.2567-.104-.4106-.288-.7966-.542-1.1358-.253-.3392-.572-.6248-.936-.8405-.365-.2157-.768-.3571-1.188-.4161z" fill="#455a64"/><path d="m311.846 52.8257-32.925-4.7329-1.991 13.8516 32.925 4.7329z" fill="#fff"/><path d="m305.878 58.2132c0 .1205-5.096-.5078-11.344-1.4028-6.248-.8951-11.3-1.7213-11.274-1.8504s5.095.5078 11.343 1.4028c6.248.8951 11.292 1.7299 11.275 1.8504z" fill="#263238"/><path d="m305.456 61.1651c0 .1205-5.095-.5078-11.343-1.4028-6.248-.8951-11.3-1.7213-11.283-1.8504s5.095.5078 11.343 1.4028c6.249.8951 11.301 1.7299 11.283 1.8504z" fill="#263238"/><path d="m360.753 61.1309c-.362.1367-.748.2006-1.135.188s-.767-.1013-1.12-.2612c-.352-.1599-.67-.3878-.934-.6706-.265-.2828-.471-.6149-.606-.9774l-9.123-23.8398c-.105-.3017-.149-.6211-.129-.9398.019-.3188.101-.6306.241-.9176.139-.287.335-.5436.574-.7551.239-.2114.518-.3736.82-.4772l2.237-.8606c.438-.1666.823-.4493 1.112-.8177.29-.3684.474-.8087.532-1.2737l.104-1.1618c.052-.4669.234-.9098.525-1.2792.29-.3694.677-.6506 1.118-.8122l10.638-4.0794c.4-.1546.832-.2073 1.257-.1532s.83.2132 1.179.463l.86.6282c.348.2484.751.4066 1.175.4607.423.0541.854.0023 1.252-.1508l13.564-5.1639c.596-.2492 1.266-.2525 1.865-.0089.598.2435 1.075.7139 1.328 1.3085l9.329 24.382c.138.3621.203.7479.191 1.1351-.012.3873-.101.7683-.261 1.1211-.16.3529-.388.6706-.671.9347-.284.2642-.617.4696-.98.6045z" fill="#029491"/><path d="m360.752 61.1307c-.362.1367-.748.2005-1.135.188-.387-.0126-.767-.1014-1.12-.2613-.352-.1598-.67-.3877-.934-.6705-.265-.2828-.471-.615-.606-.9775l-9.123-23.8397c-.105-.3018-.149-.6211-.129-.9399.019-.3187.101-.6305.241-.9175.14-.2871.335-.5437.574-.7551.239-.2115.518-.3736.82-.4772l2.238-.8607c.438-.1666.822-.4492 1.111-.8177.29-.3684.474-.8087.532-1.2736l.104-1.1619c.052-.4668.234-.9098.525-1.2791.29-.3694.677-.6506 1.118-.8123l10.638-4.0794c.4-.1546.832-.2072 1.257-.1531s.83.2132 1.179.4629l.86.6283c.348.2483.751.4066 1.175.4607.423.054.854.0022 1.252-.1509l13.564-5.1638c.596-.2493 1.266-.2525 1.865-.009.598.2435 1.075.714 1.328 1.3086l9.329 24.3819c.138.3621.203.7479.191 1.1352-.012.3872-.101.7682-.261 1.1211-.16.3528-.388.6705-.671.9347-.284.2642-.617.4696-.98.6045z" fill="#000" opacity=".3"/><path d="m369.979 23.9768-8.607 3.2877-1.325-1.1447c-.439-.3706-.97-.6145-1.538-.7055-.567-.091-1.148-.0256-1.681.1891l-8.434 3.2274c-.703.2496-1.278.7671-1.601 1.4395-.322.6724-.366 1.4452-.12 2.1494l.378.9811 9.906 25.8881c.333.7821.96 1.4015 1.747 1.7237.786.3223 1.668.3214 2.453-.0024l34.262-13.1162c.805-.2776 1.466-.8632 1.839-1.6282.373-.7649.427-1.6466.15-2.4512l-9.364-24.4594c-.202-.5238-.604-.9459-1.117-1.1735-.514-.2275-1.096-.2419-1.62-.04z" fill="#029491"/><path d="m381.878 30.2353-20.391 7.8069 3.284 8.576 20.391-7.807z" fill="#fff"/><path d="m380.176 35.2515c-2.248 1.104-4.562 2.0697-6.928 2.8917-2.308.9668-4.674 1.7917-7.083 2.47 2.238-1.0939 4.537-2.0593 6.885-2.8917 2.325-.9638 4.704-1.7886 7.126-2.47z" fill="#263238"/><path d="m380.875 37.0845c-2.238 1.0924-4.537 2.055-6.885 2.8831-2.333.9599-4.721 1.779-7.152 2.4529 2.248-1.1041 4.562-2.0698 6.928-2.8918 2.318-.9575 4.692-1.7738 7.109-2.4442z" fill="#263238"/></svg>