<svg width="60" height="20" viewBox="0 0 60 20" fill="none" xmlns="http://www.w3.org/2000/svg">
<path d="M25.4455 10.3004C25.4455 13.1164 23.2425 15.1915 20.539 15.1915C17.8354 15.1915 15.6324 13.1164 15.6324 10.3004C15.6324 7.46453 17.8354 5.4093 20.539 5.4093C23.2425 5.4093 25.4455 7.46453 25.4455 10.3004ZM23.2977 10.3004C23.2977 8.54066 22.0209 7.33663 20.539 7.33663C19.0571 7.33663 17.7803 8.54066 17.7803 10.3004C17.7803 12.0425 19.0571 13.2642 20.539 13.2642C22.0209 13.2642 23.2977 12.0403 23.2977 10.3004Z" fill="#EA4335"/>
<path d="M36.0306 10.3004C36.0306 13.1164 33.8276 15.1915 31.1241 15.1915C28.4205 15.1915 26.2175 13.1164 26.2175 10.3004C26.2175 7.46674 28.4205 5.4093 31.1241 5.4093C33.8276 5.4093 36.0306 7.46453 36.0306 10.3004ZM33.8827 10.3004C33.8827 8.54066 32.6059 7.33663 31.1241 7.33663C29.6422 7.33663 28.3654 8.54066 28.3654 10.3004C28.3654 12.0425 29.6422 13.2642 31.1241 13.2642C32.6059 13.2642 33.8827 12.0403 33.8827 10.3004Z" fill="#FBBC05"/>
<path d="M46.1744 5.7048V14.4858C46.1744 18.0979 44.0442 19.5732 41.5259 19.5732C39.1553 19.5732 37.7286 17.9877 37.1905 16.691L39.0605 15.9126C39.3935 16.7087 40.2094 17.6481 41.5237 17.6481C43.1357 17.6481 44.1346 16.6535 44.1346 14.7813V14.0779H44.0596C43.5789 14.6711 42.6527 15.1893 41.484 15.1893C39.0384 15.1893 36.798 13.0591 36.798 10.318C36.798 7.55715 39.0384 5.4093 41.484 5.4093C42.6505 5.4093 43.5767 5.92752 44.0596 6.50307H44.1346V5.707H46.1744V5.7048ZM44.2868 10.318C44.2868 8.59579 43.1379 7.33663 41.6758 7.33663C40.194 7.33663 38.9524 8.59579 38.9524 10.318C38.9524 12.0226 40.194 13.2642 41.6758 13.2642C43.1379 13.2642 44.2868 12.0226 44.2868 10.318Z" fill="#4285F4"/>
<path d="M49.5372 0.557861V14.8915H47.4423V0.557861H49.5372Z" fill="#34A853"/>
<path d="M57.7006 11.9102L59.3677 13.0216C58.8297 13.8177 57.533 15.1893 55.2926 15.1893C52.514 15.1893 50.439 13.0414 50.439 10.2982C50.439 7.38956 52.5317 5.4071 55.0522 5.4071C57.5904 5.4071 58.8319 7.42705 59.2376 8.51862L59.4604 9.07432L52.922 11.7823C53.4226 12.7636 54.201 13.2642 55.2926 13.2642C56.3863 13.2642 57.1449 12.7261 57.7006 11.9102ZM52.5692 10.1505L56.9398 8.33559C56.6995 7.72475 55.9762 7.29915 55.125 7.29915C54.0334 7.29915 52.514 8.26281 52.5692 10.1505Z" fill="#EA4335"/>
<path d="M7.7027 9.02802V6.95294H14.6953C14.7637 7.31459 14.799 7.74239 14.799 8.20548C14.799 9.76234 14.3734 11.6875 13.0018 13.0591C11.6676 14.4484 9.96301 15.1893 7.70491 15.1893C3.51947 15.1893 0 11.7801 0 7.59465C0 3.40921 3.51947 0 7.70491 0C10.0203 0 11.6698 0.908535 12.9091 2.09272L11.4449 3.55696C10.5562 2.7234 9.35218 2.07508 7.7027 2.07508C4.64632 2.07508 2.2559 4.53826 2.2559 7.59465C2.2559 10.651 4.64632 13.1142 7.7027 13.1142C9.68516 13.1142 10.8142 12.3181 11.5375 11.5948C12.1241 11.0083 12.51 10.1703 12.6622 9.02581L7.7027 9.02802Z" fill="#4285F4"/>
</svg>
