<svg width="56" height="17" viewBox="0 0 56 17" fill="none" xmlns="http://www.w3.org/2000/svg">
<path d="M53.5367 14.1224C54.6383 14.1224 55.4187 13.9235 56.0001 13.4951V11.5519C55.4034 11.9651 54.6842 12.2252 53.6744 12.2252C51.976 12.2252 51.2722 10.9093 51.2722 8.82845C51.2722 6.64047 52.129 5.52353 53.6897 5.52353C54.6077 5.52353 55.5105 5.84484 55.9848 6.15085V4.13118C55.4799 3.85577 54.6077 3.65686 53.4143 3.65686C50.3695 3.65686 48.7935 5.84484 48.7935 8.90495C48.8088 12.2558 50.3542 14.1224 53.5367 14.1224ZM38.6493 13.235V11.2918C37.9148 11.7968 36.6602 12.2405 35.5126 12.2405C33.7684 12.2405 33.1105 11.4142 33.0034 9.73118H38.7564V8.47653C38.7564 4.97271 37.211 3.65686 34.8394 3.65686C31.9323 3.65686 30.5553 5.87544 30.5553 8.92025C30.5553 12.4241 32.2842 14.1224 35.3137 14.1224C36.8285 14.1224 37.9454 13.7093 38.6493 13.235ZM16.8154 3.84047V7.81861H13.6329V3.84047H11.246V13.9235H13.6329V9.71588H16.8154V13.9235H19.2023V3.84047H16.8154ZM29.9585 12.0263H28.9028V3.84047H21.9564V4.6973C21.9564 7.16069 21.8033 10.3432 20.9618 12.0263H20.1968V16.2186H22.4001V13.9235H27.74V16.2186H29.9432V12.0263H29.9585ZM46.2536 13.9235H48.9618L45.1367 8.49183L48.5028 3.84047H46.1006L42.7345 8.49183V3.84047H40.3476V13.9235H42.7345V8.96615L46.2536 13.9235ZM34.7782 5.52353C35.9564 5.52353 36.3236 6.50276 36.3236 7.77271V7.97162H33.0034C33.0646 6.36506 33.646 5.52353 34.7782 5.52353ZM26.5159 12.0263H23.1498C23.8077 10.5115 23.9913 7.75741 23.9913 6.01314V5.70713H26.5159V12.0263Z" fill="black"/>
<path d="M9.25683 13.9235H6.82405V1.88197H5.73771C3.74864 1.88197 2.7082 2.8765 2.7082 4.36066C2.7082 6.04372 3.42732 6.82404 4.91148 7.81858L6.13552 8.64481L2.61639 13.9235H0L3.16721 9.21093C1.34645 7.91038 0.321312 6.64044 0.321312 4.49836C0.321312 1.82077 2.18798 0 5.72241 0H9.24153V13.9235H9.25683Z" fill="#FC3F1D"/>
</svg>
